<svg width="54" height="63" viewBox="0 0 54 63" fill="none" xmlns="http://www.w3.org/2000/svg">
<path fill-rule="evenodd" clip-rule="evenodd" d="M32.76 5.544C32.76 2.48213 30.2779 0 27.216 0C24.1541 0 21.672 2.48213 21.672 5.544H16.592C14.3429 5.544 12.4406 7.029 11.8122 9.072H8C3.58172 9.072 0 12.6537 0 17.072V55C0 59.4183 3.58173 63 8 63H45.928C50.3463 63 53.928 59.4183 53.928 55V17.072C53.928 12.6537 50.3463 9.072 45.928 9.072H42.1158C41.4874 7.029 39.5851 5.544 37.336 5.544H32.76ZM27.216 9.072C29.1645 9.072 30.744 7.49246 30.744 5.544C30.744 3.59554 29.1645 2.016 27.216 2.016C25.2675 2.016 23.688 3.59554 23.688 5.544C23.688 7.49246 25.2675 9.072 27.216 9.072Z" fill="#D9D9D9"/>
<path d="M43.848 25.7835H40.6453C39.9336 25.7835 39.4841 25.4258 39.2969 24.7106C39.1845 24.0707 39.0908 23.299 39.0159 22.3956H30.7565V51.362L32.3859 51.6443C32.5732 51.6819 32.7231 51.7196 32.8354 51.7572C32.9853 51.7949 33.1164 51.8137 33.2287 51.8137L33.5659 51.8702C34.5397 52.096 35.0267 52.6795 35.0267 53.6206V56.952H18.9574V53.6206C18.9574 52.6795 19.4256 52.096 20.3621 51.8702L20.6992 51.8137C20.8116 51.8137 20.9239 51.7949 21.0363 51.7572C21.1861 51.7196 21.3547 51.6819 21.542 51.6443L23.1714 51.362V22.3391H14.912C14.8371 23.3178 14.7434 24.1083 14.6311 24.7106C14.4438 25.4258 14.013 25.7835 13.3388 25.7835H10.08V16.128H43.848V25.7835Z" fill="black"/>
</svg>
